<?xml version="1.0" standalone="no"?>
<!DOCTYPE svg PUBLIC "-//W3C//DTD SVG 20010904//EN"
 "http://www.w3.org/TR/2001/REC-SVG-20010904/DTD/svg10.dtd">
<svg version="1.0" xmlns="http://www.w3.org/2000/svg"
 width="595.000000pt" height="595.000000pt" viewBox="0 0 595.000000 595.000000"
 preserveAspectRatio="xMidYMid meet">
<metadata>
Created by potrace 1.11, written by Peter Selinger 2001-2013
</metadata>
<g transform="translate(0.000000,595.000000) scale(0.100000,-0.100000)"
fill="#000000" stroke="none">
<path d="M2760 5881 c-30 -16 -77 -33 -105 -36 -27 -4 -67 -14 -89 -21 -21 -8
-54 -14 -72 -14 -54 0 -140 -37 -173 -75 -17 -19 -34 -35 -38 -35 -4 0 -16
-15 -26 -32 -16 -29 -20 -30 -28 -15 -6 9 -16 17 -24 17 -14 0 -35 -49 -35
-82 0 -10 -10 -22 -23 -27 -28 -11 -95 -83 -107 -117 -13 -33 -13 -86 0 -119
7 -18 7 -39 0 -63 -8 -29 -19 -41 -53 -57 -75 -36 -90 -114 -27 -137 17 -5 30
-12 30 -15 0 -11 -72 -88 -88 -94 -16 -6 -15 -8 2 -14 11 -5 21 -3 27 6 5 8 9
9 9 3 0 -6 -16 -28 -35 -50 -29 -32 -36 -36 -45 -24 -8 12 -10 11 -10 -9 0
-16 -4 -21 -15 -17 -8 3 -15 4 -15 3 0 -1 8 -56 16 -122 18 -132 19 -161 12
-252 -4 -42 -2 -64 6 -67 8 -3 7 -7 -3 -14 -8 -6 -9 -12 -3 -16 6 -3 11 -14
10 -24 0 -19 6 -60 21 -137 5 -27 12 -93 16 -145 4 -52 13 -133 21 -179 19
-116 20 -114 -22 -86 -38 26 -64 32 -64 15 0 -5 8 -10 18 -10 17 0 42 -41 42
-68 0 -7 4 -11 9 -7 13 8 31 -27 31 -61 0 -15 3 -24 6 -21 4 4 8 76 10 162 5
240 14 416 23 457 5 20 6 47 4 60 -11 59 69 381 99 400 7 3 13 17 15 29 2 13
10 33 18 46 8 12 15 33 15 45 0 19 -2 20 -10 8 -8 -13 -10 -13 -10 1 0 9 7 19
15 23 8 3 15 12 15 20 0 8 16 31 35 52 19 20 35 42 35 48 0 6 33 26 73 45 39
18 84 39 100 46 20 11 27 11 27 2 0 -9 3 -8 8 1 5 7 26 15 48 19 21 3 41 9 44
12 3 3 22 15 43 25 27 14 36 24 32 37 -7 20 9 32 45 36 23 3 123 19 160 26 9
2 20 6 26 10 30 18 156 28 223 18 78 -12 124 -6 161 21 22 16 39 17 135 13 61
-2 161 -6 222 -9 99 -4 120 -8 175 -34 35 -16 75 -33 91 -36 15 -4 27 -13 27
-21 0 -8 24 -31 53 -52 60 -42 134 -129 147 -170 6 -20 9 -22 9 -9 1 19 2 19
21 -1 10 -12 33 -52 50 -90 18 -37 42 -91 56 -118 13 -28 24 -57 24 -66 0 -9
3 -19 7 -23 4 -3 8 -14 9 -22 1 -9 6 -23 9 -32 9 -22 16 -86 16 -144 0 -27 3
-48 7 -48 4 0 7 -24 7 -53 -1 -28 5 -86 13 -127 7 -41 15 -98 17 -127 4 -59
13 -82 25 -63 4 7 10 -3 15 -27 3 -21 16 -48 28 -60 11 -13 15 -23 9 -23 -8 0
-9 -7 -2 -26 6 -14 7 -36 4 -50 -3 -13 -3 -49 1 -79 l6 -54 32 35 c47 54 106
149 95 153 -17 6 -67 -51 -80 -92 -16 -48 -40 -63 -33 -20 2 15 7 66 10 113 3
47 9 105 15 130 5 25 9 70 10 101 0 31 7 96 15 144 29 164 41 370 28 467 -8
58 -7 68 6 72 12 3 10 6 -7 11 -21 7 -22 9 -7 31 19 29 19 40 1 25 -11 -9 -15
-8 -20 5 -3 9 -3 20 0 26 3 5 -4 20 -17 34 -19 21 -21 27 -10 50 10 23 8 34
-18 89 -17 35 -35 66 -41 70 -7 4 -7 12 0 25 15 27 14 27 -39 55 -28 14 -96
70 -158 131 -121 119 -228 204 -288 228 -42 18 -211 21 -221 5 -3 -5 -23 -9
-44 -9 -21 0 -42 -5 -45 -11 -4 -6 -14 -8 -22 -5 -9 4 -22 1 -29 -5 -11 -9
-14 -8 -14 6 0 9 -9 19 -19 22 -11 3 -25 18 -31 34 -7 15 -18 34 -26 40 -8 6
-14 21 -14 32 0 11 -3 17 -7 13 -4 -3 -20 7 -37 23 -17 15 -47 31 -66 35 -19
3 -66 16 -103 28 -51 16 -73 19 -85 12 -12 -8 -26 -7 -52 4 -35 14 -107 29
-190 37 -36 4 -56 -1 -100 -24z m-114 -80 c-10 -11 -25 -17 -36 -14 -12 3 -28
-5 -45 -23 -35 -38 -65 -42 -63 -9 2 25 8 29 43 26 16 -2 17 0 5 8 -12 8 -10
12 10 20 14 5 43 10 64 10 38 1 39 0 22 -18z m-156 -11 c0 -5 -9 -10 -20 -10
-11 0 -20 5 -20 10 0 6 9 10 20 10 11 0 20 -4 20 -10z m-35 -19 c3 -5 -11 -23
-31 -39 -33 -27 -39 -29 -52 -16 -13 13 -12 18 8 40 23 24 64 32 75 15z m45
-4 c0 -2 -15 -13 -32 -26 l-33 -22 28 25 c26 24 37 31 37 23z m-280 -119 c0
-7 -9 -26 -20 -43 -22 -33 -28 -16 -10 29 10 27 30 36 30 14z m1375 -28 c3 -5
1 -10 -4 -10 -6 0 -11 5 -11 10 0 6 2 10 4 10 3 0 8 -4 11 -10z m-1436 -99
c-6 -16 -19 -37 -30 -47 -20 -18 -27 -40 -8 -28 15 9 -17 -50 -35 -65 -9 -8
-16 -20 -16 -27 0 -8 -4 -14 -10 -14 -29 0 10 134 51 176 42 43 62 45 48 5z
m1837 -6 c25 -17 26 -20 10 -23 -23 -5 -108 27 -101 38 8 14 61 5 91 -15z
m139 -135 c3 -5 1 -10 -4 -10 -6 0 -11 5 -11 10 0 6 2 10 4 10 3 0 8 -4 11
-10z m-1991 -54 c-6 -15 -24 -23 -24 -11 0 8 24 34 28 30 1 -1 0 -10 -4 -19z
m2184 -75 c2 -6 -1 -11 -6 -11 -14 0 -62 40 -62 52 0 12 63 -26 68 -41z
m-2228 8 c0 -6 -4 -7 -10 -4 -5 3 -10 11 -10 16 0 6 5 7 10 4 6 -3 10 -11 10
-16z m-43 -21 c-3 -8 -6 -5 -6 6 -1 11 2 17 5 13 3 -3 4 -12 1 -19z m-27 -49
c0 -4 -7 -10 -16 -13 -8 -3 -12 -2 -9 4 11 18 -11 11 -29 -9 -10 -11 -15 -25
-10 -32 4 -7 3 -10 -4 -5 -5 3 -13 0 -15 -6 -3 -7 -6 -3 -6 9 -1 25 41 62 70
60 10 -1 19 -4 19 -8z m0 -69 c0 -5 -4 -10 -10 -10 -5 0 -10 5 -10 10 0 6 5
10 10 10 6 0 10 -4 10 -10z m-79 -27 c13 -16 12 -17 -3 -4 -10 7 -18 15 -18
17 0 8 8 3 21 -13z m-57 -265 c-7 -11 -34 -10 -34 1 0 6 9 9 19 8 11 0 17 -5
15 -9z"/>
<path d="M2091 5422 c-17 -31 -13 -40 5 -14 9 13 14 26 11 29 -3 2 -10 -4 -16
-15z"/>
<path d="M1870 4985 c-11 -13 -11 -18 0 -28 10 -9 11 -9 5 1 -4 8 0 19 11 27
11 8 14 15 8 15 -6 0 -17 -7 -24 -15z"/>
<path d="M2371 4870 c-7 -4 -12 -12 -10 -18 3 -7 10 -6 22 3 20 14 9 29 -12
15z"/>
<path d="M4160 4534 c0 -8 5 -12 10 -9 6 4 8 11 5 16 -9 14 -15 11 -15 -7z"/>
<path d="M3960 4101 c0 -5 5 -13 10 -16 6 -3 10 -2 10 4 0 5 -4 13 -10 16 -5
3 -10 2 -10 -4z"/>
<path d="M3814 4019 c-8 -13 1 -21 39 -37 18 -7 22 -10 10 -8 -12 2 -24 -1
-26 -7 -3 -9 -58 11 -120 44 -13 7 -23 7 -32 -1 -7 -6 -54 -12 -105 -13 -74
-2 -94 -6 -101 -20 -6 -9 -16 -17 -24 -17 -7 0 -23 -12 -34 -27 -11 -16 -21
-22 -21 -15 0 27 -20 10 -30 -28 -12 -46 -22 -54 -14 -11 4 16 1 32 -5 36 -8
5 -10 -10 -7 -50 3 -32 6 -58 8 -60 2 -2 35 8 73 22 39 13 88 27 110 29 22 3
76 14 119 25 48 11 115 19 167 19 50 0 91 4 94 10 4 6 15 8 26 5 10 -4 19 -3
19 2 0 10 97 9 127 -1 12 -4 25 -16 28 -27 12 -36 85 -48 85 -14 0 14 -75 85
-90 85 -6 0 -10 -4 -10 -10 0 -18 -18 -10 -23 10 -6 24 -58 51 -64 33 -3 -8
-18 -5 -48 8 -36 16 -49 18 -66 8 -16 -8 -23 -8 -29 0 -9 16 -48 22 -56 10z"/>
<path d="M2225 3969 c-16 -11 -43 -25 -60 -33 -16 -8 -36 -24 -43 -35 -7 -12
-20 -21 -30 -21 -11 0 -24 -16 -35 -42 -23 -51 -16 -173 10 -182 12 -5 14 -1
9 19 -4 17 0 31 14 45 11 11 17 20 14 20 -4 0 -1 6 5 14 6 7 9 20 6 29 -4 9 4
22 18 34 22 17 34 18 103 12 43 -4 81 -6 83 -3 2 2 -5 4 -17 4 -12 0 -22 5
-22 10 0 6 7 10 15 10 9 0 12 6 9 15 -8 20 42 21 62 1 12 -13 11 -15 -8 -19
-13 -2 -3 -5 22 -6 25 -1 74 -6 110 -12 36 -6 79 -12 95 -14 17 -3 39 -7 50
-9 96 -23 272 -26 259 -5 -3 5 1 9 8 9 10 0 9 3 -2 9 -8 6 -18 7 -22 5 -4 -3
-5 2 -2 10 4 9 1 16 -6 16 -7 0 -10 7 -6 15 3 10 -1 15 -11 15 -9 0 -31 11
-49 25 -38 29 -46 31 -38 10 8 -21 -12 -19 -33 4 -20 21 -81 44 -94 35 -5 -3
-9 -2 -9 3 0 4 -26 7 -57 6 -32 -1 -74 5 -93 13 -38 16 -96 10 -69 -7 12 -7
11 -9 -3 -9 -10 0 -18 5 -18 10 0 17 -53 11 -91 -9 -24 -13 -40 -16 -50 -10
-12 8 -12 10 1 18 8 6 12 12 10 14 -3 2 -18 -4 -35 -14z m40 -97 c-3 -3 -11 0
-18 7 -9 10 -8 11 6 5 10 -3 15 -9 12 -12z m-21 -22 c-10 -4 -23 -5 -28 -2
-13 7 16 21 32 14 13 -4 12 -7 -4 -12z"/>
<path d="M4566 3883 c-6 -14 -5 -15 5 -6 7 7 10 15 7 18 -3 3 -9 -2 -12 -12z"/>
<path d="M4167 3833 c-12 -11 -8 -23 8 -23 8 0 15 7 15 15 0 16 -12 20 -23 8z"/>
<path d="M1781 3794 c-1 -12 9 -46 22 -75 12 -30 23 -60 23 -66 2 -35 5 -43
14 -43 17 0 11 38 -12 83 -12 23 -27 60 -34 82 -8 24 -13 32 -13 19z"/>
<path d="M3577 3790 c-105 -14 -164 -45 -210 -110 -27 -39 -20 -46 14 -14 l31
29 -7 -30 -7 -30 23 26 c13 14 30 24 38 21 9 -3 11 0 6 8 -6 10 -3 12 13 8 15
-4 19 -2 15 8 -3 8 -1 14 5 14 5 0 12 10 15 21 5 18 11 20 32 15 16 -4 24 -3
21 3 -3 5 16 12 44 16 27 4 52 11 56 16 6 10 -4 10 -89 -1z"/>
<path d="M3718 3793 c7 -3 16 -2 19 1 4 3 -2 6 -13 5 -11 0 -14 -3 -6 -6z"/>
<path d="M3915 3754 c28 -13 46 -24 40 -24 -7 0 -7 -3 0 -8 6 -4 19 -17 29
-30 l19 -22 -39 16 c-58 25 -183 54 -229 53 -93 0 -235 -51 -278 -99 -33 -37
-28 -54 6 -22 28 27 114 65 127 57 6 -3 10 -21 10 -40 0 -24 9 -43 34 -69 28
-30 40 -36 76 -36 36 0 48 6 81 39 33 32 39 45 39 80 0 22 3 41 8 41 13 0 82
-50 82 -60 0 -5 10 -10 23 -12 18 -3 22 -8 19 -37 -2 -28 0 -32 12 -22 7 6 21
9 30 5 9 -3 16 -1 16 5 0 6 10 11 21 11 19 0 21 4 14 38 -3 20 -11 41 -16 47
-14 14 -11 25 9 25 31 1 -55 67 -103 79 -71 18 -84 11 -30 -15z m-146 -74 c3
0 0 -5 -6 -11 -7 -7 -17 -8 -25 -3 -16 10 -48 6 -65 -8 -10 -8 -13 -5 -13 10
0 24 30 32 75 20 16 -4 32 -8 34 -8z"/>
<path d="M2545 3730 c-18 -9 -18 -9 5 -8 73 4 121 -3 138 -19 23 -24 69 -44
84 -38 20 8 75 -51 83 -86 6 -25 9 -29 16 -17 16 28 -47 145 -80 149 -3 0 -13
2 -21 4 -8 2 -33 9 -55 14 -49 13 -143 13 -170 1z"/>
<path d="M2335 3705 c-112 -31 -168 -69 -172 -118 -1 -18 -4 -51 -6 -74 -5
-53 4 -67 36 -59 20 5 35 -2 67 -29 24 -20 45 -34 47 -31 3 2 -7 25 -21 50
-14 26 -26 53 -26 60 0 17 34 27 49 15 8 -6 8 -5 1 3 -18 22 -10 39 24 53 19
8 37 19 41 25 12 19 25 10 23 -17 -4 -62 57 -123 123 -123 55 0 109 61 109
124 0 20 4 36 10 36 23 0 120 -46 120 -57 0 -15 26 -17 34 -4 8 13 -60 70 -92
76 -15 4 -46 11 -70 16 -106 24 -237 13 -314 -26 -45 -22 -50 -19 -30 20 14
29 27 38 77 55 68 22 46 26 -30 5z m202 -91 c4 -13 -55 -25 -63 -13 -6 10 27
29 45 26 8 -1 16 -7 18 -13z m38 -12 c0 -18 -20 -15 -23 4 -3 10 1 15 10 12 7
-3 13 -10 13 -16z"/>
<path d="M2781 3633 c7 -12 15 -20 18 -17 3 2 -3 12 -13 22 -17 16 -18 16 -5
-5z"/>
<path d="M1860 3601 c0 -5 5 -11 12 -13 7 -3 11 -20 10 -46 -3 -47 13 -57 21
-15 3 17 -1 39 -11 55 -16 28 -32 37 -32 19z"/>
<path d="M4390 3432 c0 -66 4 -123 8 -126 11 -6 10 229 0 240 -5 4 -8 -47 -8
-114z"/>
<path d="M2753 3516 c0 -12 5 -13 21 -4 31 16 32 18 4 18 -15 0 -25 -6 -25
-14z"/>
<path d="M3510 3486 c0 -7 64 -43 89 -51 17 -5 22 -4 19 6 -3 8 -9 14 -14 15
-5 0 -22 6 -39 13 -46 18 -55 21 -55 17z"/>
<path d="M2325 3380 c3 -5 8 -10 11 -10 2 0 4 5 4 10 0 6 -5 10 -11 10 -5 0
-7 -4 -4 -10z"/>
<path d="M2405 3330 c-7 -12 2 -12 30 0 19 8 19 9 -2 9 -12 1 -25 -3 -28 -9z"/>
<path d="M1950 3226 c0 -22 3 -27 11 -19 8 8 8 16 0 30 -9 16 -10 14 -11 -11z"/>
<path d="M4379 3193 c-1 -5 -1 -11 -1 -14 7 -54 -6 -201 -18 -209 -5 -3 -8
-12 -8 -20 2 -36 -3 -50 -18 -50 -13 0 -14 -3 -5 -14 9 -10 7 -19 -10 -37 -11
-13 -17 -18 -13 -10 4 9 2 12 -7 9 -9 -3 -14 -21 -14 -54 0 -27 -4 -55 -8 -62
-5 -7 -6 -24 -3 -37 5 -19 -5 -60 -20 -83 -1 -2 -12 1 -23 8 -19 9 -23 7 -33
-17 -6 -15 -12 -35 -13 -43 -1 -8 -5 -28 -9 -45 -6 -24 -5 -26 4 -13 6 10 17
15 27 11 11 -4 14 -3 9 5 -5 8 -2 10 8 6 9 -3 16 -12 16 -20 0 -8 4 -14 9 -14
5 0 5 -15 -1 -34 -7 -22 -16 -32 -24 -29 -16 6 -19 -13 -4 -22 14 -8 13 -21
-3 -37 -8 -7 -16 -19 -18 -26 -3 -8 -9 -4 -18 9 -11 19 -11 21 2 16 21 -8 27
24 11 54 -13 23 -13 23 -8 -8 5 -26 3 -31 -11 -29 -9 1 -22 10 -27 19 -17 32
-27 7 -12 -29 17 -40 12 -76 -8 -56 -16 16 -38 15 -38 -2 0 -8 -4 -16 -10 -18
-6 -2 -6 -8 0 -18 8 -13 10 -12 10 3 0 9 5 17 10 17 18 0 11 -45 -10 -63 -24
-21 -34 -22 -27 -3 5 14 -13 80 -26 92 -10 10 -9 -13 3 -79 8 -40 8 -62 0 -77
-13 -24 -30 -18 -30 10 0 10 -9 22 -20 25 -11 3 -20 11 -20 16 0 6 -5 7 -10 4
-8 -5 -7 -11 1 -21 9 -12 9 -13 -3 -9 -26 10 -42 -37 -29 -89 14 -57 14 -61
-2 -47 -11 8 -17 5 -28 -17 -21 -41 -44 -63 -68 -65 -22 -1 -24 -7 -21 -44 2
-26 -27 -32 -48 -11 -18 18 -25 4 -25 -49 0 -26 -2 -38 -4 -25 -5 23 -27 30
-38 12 -4 -6 -11 -8 -16 -5 -5 4 -14 -5 -20 -19 -10 -21 -17 -24 -37 -19 -23
5 -25 4 -19 -23 3 -16 9 -38 13 -49 8 -20 7 -20 -11 -1 -15 15 -20 16 -29 5
-13 -17 -56 -23 -56 -9 0 6 -5 10 -10 10 -6 0 -10 -6 -9 -12 4 -31 -2 -40 -20
-35 -15 4 -22 -2 -30 -24 -6 -16 -7 -37 -4 -47 4 -9 -4 -4 -18 11 -15 17 -35
28 -55 30 -18 1 -30 7 -27 13 2 6 -4 17 -13 25 -15 12 -16 9 -13 -32 4 -46 4
-46 -18 -31 -21 13 -23 13 -23 -2 0 -10 5 -14 10 -11 12 8 12 5 -5 -70 -7 -33
-14 -49 -14 -35 -2 23 -3 24 -15 7 -12 -16 -14 -16 -20 -1 -3 8 -6 30 -7 47 0
27 -2 29 -9 12 -5 -11 -11 -33 -15 -49 -11 -53 -16 -19 -6 44 6 36 7 69 2 79
-13 24 2 177 17 173 7 -1 12 9 12 23 0 16 -6 25 -15 25 -9 0 -15 -9 -15 -23 0
-13 -9 -32 -20 -42 -11 -10 -18 -20 -15 -23 3 -3 -4 -11 -15 -19 -11 -8 -20
-22 -20 -31 0 -13 -2 -14 -9 -3 -7 11 -9 11 -14 0 -4 -10 -6 -9 -6 4 -1 9 -6
17 -12 17 -6 0 -9 6 -6 14 8 21 -3 27 -20 10 -10 -10 -16 -42 -18 -97 -2 -45
-8 -98 -13 -117 l-9 -35 -7 32 c-7 31 -36 67 -36 45 0 -17 22 -65 39 -85 8 -9
11 -20 8 -24 -4 -3 -7 -1 -7 5 0 7 -4 12 -10 12 -5 0 -10 -10 -10 -22 0 -31
-14 -13 -16 22 -3 47 -25 130 -34 130 -5 0 -11 -10 -13 -22 -4 -20 -4 -19 -6
5 -1 26 -2 26 -19 10 -11 -11 -16 -28 -14 -43 3 -14 2 -23 -1 -20 -3 3 -8 23
-11 45 -4 22 -11 42 -16 43 -6 2 -10 13 -10 23 0 11 -4 17 -10 14 -5 -3 -10
-1 -10 6 0 7 -10 9 -25 7 -21 -4 -25 -1 -25 19 0 16 -7 27 -20 30 -11 3 -20
10 -20 15 0 6 -5 6 -14 -1 -11 -9 -15 -7 -19 9 -4 14 -10 18 -23 13 -14 -5
-16 -3 -11 11 5 12 0 19 -18 26 -14 5 -25 18 -25 28 0 10 -16 35 -35 56 -25
28 -32 42 -25 51 10 12 4 25 -12 25 -5 0 -6 -5 -2 -12 4 -7 3 -8 -4 -4 -8 5
-9 13 -2 25 5 10 6 21 3 25 -3 3 -1 6 5 6 15 0 16 46 2 55 -5 3 -10 15 -10 26
0 11 -4 17 -10 14 -6 -3 -10 1 -10 9 0 22 16 28 30 11 7 -8 16 -12 21 -9 13 8
11 -20 -2 -33 -8 -8 -8 -17 -1 -29 8 -15 11 -10 16 26 3 25 4 56 1 70 -2 14
-4 29 -4 34 -1 4 -8 6 -16 2 -9 -3 -15 0 -15 8 0 9 9 12 26 8 19 -3 25 -1 20
7 -4 6 -12 9 -17 6 -5 -4 -9 3 -9 15 0 12 -4 18 -10 15 -6 -3 -7 1 -4 9 11 28
-11 17 -24 -11 -7 -16 -19 -39 -27 -53 -12 -20 -14 -45 -10 -117 4 -65 2 -93
-5 -93 -7 0 -9 8 -5 21 5 15 4 19 -4 15 -6 -4 -11 -23 -11 -42 0 -19 -4 -33
-9 -30 -5 3 -7 25 -4 48 4 29 3 39 -5 34 -8 -5 -12 2 -12 18 0 14 -5 26 -11
26 -7 0 -9 10 -5 26 5 17 3 23 -4 19 -16 -10 -12 12 10 55 26 52 18 51 -21 -2
l-31 -43 4 42 c3 39 1 43 -24 48 -20 5 -26 11 -23 26 5 24 -3 24 -22 2 -13
-16 -14 -16 -10 9 2 16 -2 33 -9 39 -8 6 -14 20 -14 30 0 11 -4 19 -8 19 -4 0
-13 14 -19 30 -6 17 -18 30 -27 30 -9 0 -15 3 -15 8 1 4 1 19 0 35 -1 32 -21
37 -21 5 0 -13 -5 -30 -11 -38 -8 -11 -9 -6 -6 21 3 21 0 45 -7 55 -7 11 -24
51 -40 91 -15 39 -34 77 -42 83 -8 7 -14 21 -14 32 0 10 -7 21 -15 24 -8 4
-15 16 -15 28 0 11 -9 48 -20 81 -11 33 -25 79 -30 103 -6 23 -14 41 -18 38
-4 -2 -5 16 -3 41 2 34 0 44 -9 38 -9 -6 -11 -28 -6 -79 18 -210 22 -240 34
-232 5 3 8 -25 7 -62 -2 -70 15 -148 30 -135 4 4 5 0 2 -10 -9 -24 14 -97 30
-97 7 0 13 -9 13 -20 0 -12 7 -35 16 -51 8 -17 13 -37 10 -45 -3 -8 1 -14 9
-14 12 0 32 -53 27 -72 -1 -5 3 -8 9 -8 6 0 8 -9 4 -20 -4 -13 -1 -22 9 -26 9
-3 16 -15 16 -25 0 -10 3 -19 8 -19 4 0 8 -15 9 -33 4 -51 12 -77 26 -74 8 1
13 -15 15 -48 2 -27 7 -54 12 -60 5 -6 10 -26 12 -43 1 -18 8 -32 15 -32 7 0
13 -4 13 -9 0 -4 13 -25 30 -46 16 -20 27 -41 24 -46 -2 -4 4 -17 16 -29 11
-11 20 -26 20 -34 0 -8 10 -18 23 -22 12 -4 29 -15 38 -25 9 -11 22 -19 28
-19 6 0 14 -13 18 -30 3 -16 9 -30 14 -30 5 0 9 -7 9 -15 0 -8 8 -19 19 -24
13 -7 17 -18 14 -36 -3 -15 -1 -25 6 -25 6 0 11 -7 11 -16 0 -8 5 -12 10 -9 6
4 8 11 5 16 -9 14 2 11 18 -6 8 -8 23 -39 32 -70 12 -38 22 -54 31 -51 8 3 17
0 21 -7 5 -7 20 -18 34 -25 14 -8 39 -25 54 -38 15 -13 34 -24 42 -24 7 0 32
-12 54 -26 23 -14 44 -23 47 -20 3 4 18 -6 33 -20 22 -21 34 -25 57 -21 17 3
34 1 41 -6 10 -9 15 -8 24 4 9 11 23 15 52 12 79 -8 120 -8 138 0 12 5 24 4
33 -4 11 -9 18 -9 26 -1 7 7 20 12 30 12 9 0 22 8 27 18 6 9 11 11 11 5 0 -7
5 -13 11 -13 6 0 8 9 3 22 -6 20 -5 21 8 10 12 -10 20 -8 41 8 14 11 30 20 37
20 6 0 26 11 45 25 22 17 34 22 37 14 2 -7 22 5 47 29 24 23 46 41 50 40 23
-4 121 80 121 104 0 4 7 8 16 8 10 0 14 5 10 15 -3 9 1 18 9 21 8 4 15 15 15
25 0 10 6 19 13 19 8 0 22 16 33 35 10 19 24 35 31 35 7 0 13 9 13 21 0 11 4
18 8 15 5 -3 15 17 22 45 9 32 17 45 22 37 5 -8 8 -2 8 17 0 31 31 69 47 57 4
-4 0 2 -10 14 -21 26 -22 34 -1 34 9 0 18 9 21 20 3 11 9 20 14 20 5 0 6 7 3
15 -4 8 -1 15 5 15 6 0 11 9 11 20 0 11 6 20 14 20 11 0 13 9 10 38 -4 23 -2
32 3 24 7 -9 15 -1 31 29 12 22 22 47 22 55 0 8 7 17 15 20 8 4 15 17 15 30 0
13 4 24 10 24 5 0 13 18 16 40 4 22 10 40 15 40 5 0 9 9 9 19 0 11 7 26 15 35
8 8 15 27 15 43 0 16 5 34 11 40 10 10 16 30 34 118 4 17 11 39 15 50 17 38
37 210 39 343 1 20 6 31 14 30 9 -2 12 18 14 72 0 41 2 80 3 85 6 27 -1 85
-10 85 -5 0 -11 -3 -11 -7z m-65 -388 c3 -8 1 -15 -4 -15 -6 0 -10 7 -10 15 0
8 2 15 4 15 2 0 6 -7 10 -15z m-1772 -607 c-8 -8 -9 -4 -5 13 4 13 8 18 11 10
2 -7 -1 -18 -6 -23z m44 -3 c-3 -20 -16 -31 -16 -13 0 13 8 28 16 28 1 0 1 -7
0 -15z m1414 -30 c20 -24 6 -28 -15 -5 -10 11 -13 20 -8 20 6 0 16 -7 23 -15z
m-1446 -113 c-4 -18 -10 -32 -15 -32 -4 0 -3 15 2 32 5 18 9 35 9 37 0 2 2 2
5 -1 3 -3 2 -19 -1 -36z m-17 -79 c-3 -10 -5 -4 -5 12 0 17 2 24 5 18 2 -7 2
-21 0 -30z m620 -285 c-3 -8 -6 -5 -6 6 -1 11 2 17 5 13 3 -3 4 -12 1 -19z
m-18 -122 c-9 -8 -10 -7 -5 7 3 10 7 37 8 60 2 41 2 41 5 -7 3 -30 0 -53 -8
-60z m-42 72 c-3 -8 -6 -5 -6 6 -1 11 2 17 5 13 3 -3 4 -12 1 -19z m626 -5 c8
-16 12 -34 9 -42 -3 -9 -10 -2 -18 19 -23 53 -15 71 9 23z m-1193 -23 c6 -11
8 -20 6 -20 -3 0 -10 9 -16 20 -6 11 -8 20 -6 20 3 0 10 -9 16 -20z m584 -109
c-6 -6 -24 19 -24 34 1 6 7 1 15 -9 8 -11 12 -22 9 -25z"/>
<path d="M1886 3140 c2 -25 12 -52 21 -60 11 -11 14 -11 8 -1 -4 7 -14 34 -21
60 l-14 46 6 -45z"/>
<path d="M1960 3148 c0 -15 5 -30 10 -33 13 -8 13 25 0 45 -8 12 -10 9 -10
-12z"/>
<path d="M2895 2978 c-4 -10 -11 -15 -16 -12 -5 3 -9 -2 -9 -10 0 -9 4 -16 9
-16 14 0 33 28 28 42 -3 9 -7 8 -12 -4z"/>
<path d="M2875 2810 c-12 -20 6 -49 36 -55 28 -6 79 -67 79 -95 0 -15 -8 -13
-55 20 -24 17 -46 30 -49 30 -17 0 -2 -31 25 -54 l30 -26 -20 -26 c-12 -15
-21 -36 -21 -48 0 -20 1 -20 19 3 14 18 20 21 26 11 9 -15 -37 -60 -61 -60
-12 0 -14 -9 -9 -45 6 -35 3 -51 -13 -77 -26 -44 -36 -78 -23 -78 6 0 11 8 12
18 0 12 3 11 10 -6 5 -13 7 -28 4 -32 -3 -5 -1 -12 5 -15 6 -4 9 -1 8 7 -2 8
9 14 32 16 19 2 38 7 43 11 10 10 17 151 6 151 -4 0 -6 12 -4 28 2 15 4 34 4
43 1 9 15 33 31 54 21 26 28 45 24 58 -4 13 -2 17 5 13 6 -4 11 -14 11 -22 0
-8 3 -13 8 -12 4 0 15 -2 25 -7 10 -4 20 -5 22 -3 6 6 -121 169 -144 184 -26
19 -59 26 -66 14z m75 -393 c0 -7 -4 -17 -10 -23 -5 -5 -11 -26 -12 -46 -3
-32 -5 -35 -17 -23 -12 12 -12 20 3 59 17 44 36 61 36 33z m-59 -34 c-10 -17
-10 -16 -11 3 0 23 13 41 18 25 2 -6 -1 -18 -7 -28z"/>
<path d="M3288 2773 c-72 -56 -100 -95 -80 -115 11 -11 16 -9 28 7 8 10 32 28
53 40 94 50 123 78 106 105 -13 20 -45 9 -107 -37z"/>
<path d="M4150 2549 c0 -5 5 -7 10 -4 6 3 10 8 10 11 0 2 -4 4 -10 4 -5 0 -10
-5 -10 -11z"/>
<path d="M3346 2507 c4 -10 8 -26 9 -35 6 -57 30 -106 47 -96 6 4 14 0 19 -7
6 -10 9 -6 9 14 0 15 -4 27 -10 27 -5 0 -11 24 -11 53 -1 33 -4 41 -6 22 l-5
-30 -29 35 c-16 19 -26 27 -23 17z"/>
<path d="M2788 2411 c-7 -12 -18 -21 -25 -21 -7 0 -13 -6 -13 -14 0 -7 -12
-26 -27 -41 l-28 -28 25 8 c35 10 82 56 75 74 -3 8 0 18 7 22 7 4 9 11 6 14
-4 4 -13 -2 -20 -14z"/>
<path d="M2820 2405 c-6 -8 -10 -19 -8 -24 1 -5 11 2 21 15 19 26 8 34 -13 9z"/>
<path d="M3180 2412 c0 -21 28 -82 38 -82 6 0 12 7 16 15 3 8 1 14 -5 12 -6
-1 -19 14 -30 33 -10 19 -19 29 -19 22z"/>
<path d="M3280 2403 c0 -4 5 -15 10 -23 8 -13 10 -13 10 2 0 9 -4 20 -10 23
-5 3 -10 3 -10 -2z"/>
<path d="M3172 2350 c0 -14 2 -19 5 -12 2 6 2 18 0 25 -3 6 -5 1 -5 -13z"/>
<path d="M2530 2309 c0 -5 5 -7 10 -4 6 3 10 8 10 11 0 2 -4 4 -10 4 -5 0 -10
-5 -10 -11z"/>
<path d="M3712 2300 c0 -14 2 -19 5 -12 2 6 2 18 0 25 -3 6 -5 1 -5 -13z"/>
<path d="M3980 2301 c0 -11 4 -22 9 -25 4 -3 6 6 3 19 -5 30 -12 33 -12 6z"/>
<path d="M2633 2267 c3 -9 0 -22 -7 -30 -9 -9 -10 -20 -4 -36 10 -29 13 -26
26 19 7 28 6 38 -6 50 -14 13 -15 12 -9 -3z"/>
<path d="M2700 2250 c0 -11 -4 -22 -10 -25 -13 -8 -13 -25 0 -25 5 0 12 11 16
24 3 14 13 26 22 28 13 3 12 5 -5 10 -18 5 -23 2 -23 -12z"/>
<path d="M2914 2244 c-22 -7 -43 -9 -47 -5 -5 5 -17 1 -28 -10 -10 -10 -28
-19 -39 -19 -11 0 -20 -6 -20 -12 0 -9 -2 -10 -8 -2 -4 6 -17 14 -28 18 -18 5
-22 1 -28 -26 -3 -17 -14 -40 -24 -51 -16 -18 -15 -18 20 1 32 19 38 19 49 6
7 -9 13 -30 13 -47 1 -31 21 -47 91 -73 55 -20 66 -14 40 20 -20 26 -19 39 3
66 12 14 24 20 31 16 9 -6 7 -12 -8 -23 -12 -8 -21 -25 -21 -39 0 -31 16 -31
24 1 6 23 9 24 69 20 34 -2 62 -5 62 -6 0 0 14 -3 30 -5 17 -3 31 -8 33 -12 7
-19 128 3 136 25 4 11 10 12 19 5 25 -21 97 -18 97 4 0 8 5 12 10 9 6 -3 10
-1 10 6 0 20 39 -21 42 -44 5 -38 38 -32 79 15 22 23 39 49 39 57 0 8 6 11 15
7 8 -3 15 -1 15 5 0 6 -9 13 -20 16 -11 3 -20 10 -20 15 0 5 -15 6 -34 3 -23
-5 -48 0 -84 15 -32 14 -61 20 -76 16 -14 -3 -28 -1 -32 5 -5 8 -9 8 -14 -1
-4 -6 -13 -12 -21 -13 -8 -2 -18 -5 -24 -9 -16 -10 -76 -2 -85 12 -5 9 -9 9
-14 1 -10 -15 -27 -14 -23 2 1 6 -4 11 -10 10 -7 -2 -13 5 -13 14 0 9 -3 13
-7 10 -3 -4 -13 -2 -20 5 -11 9 -16 9 -23 -1 -5 -10 -9 -10 -15 -2 -4 8 -11 9
-19 2 -7 -6 -26 -7 -48 -2 -23 6 -49 4 -74 -5z m596 -115 c0 -26 -15 -24 -28
5 -9 21 -8 23 9 19 10 -3 19 -14 19 -24z m-60 0 c0 -5 4 -8 8 -5 5 3 9 -13 10
-35 4 -60 -8 -49 -32 29 -5 13 -3 22 3 22 6 0 11 -5 11 -11z m-578 -21 c-7 -7
-12 -8 -12 -2 0 14 12 26 19 19 2 -3 -1 -11 -7 -17z"/>
<path d="M3602 2240 c0 -14 2 -19 5 -12 2 6 2 18 0 25 -3 6 -5 1 -5 -13z"/>
<path d="M3900 2111 c0 -6 4 -13 10 -16 6 -3 7 1 4 9 -7 18 -14 21 -14 7z"/>
<path d="M3416 2050 c7 -39 11 -46 21 -37 3 4 -1 22 -10 40 l-17 32 6 -35z"/>
<path d="M2951 2054 c0 -11 3 -14 6 -6 3 7 2 16 -1 19 -3 4 -6 -2 -5 -13z"/>
<path d="M3388 2030 c2 -16 7 -30 11 -30 4 0 6 14 3 30 -2 17 -7 30 -11 30 -4
0 -6 -13 -3 -30z"/>
<path d="M3791 1994 c0 -11 3 -14 6 -6 3 7 2 16 -1 19 -3 4 -6 -2 -5 -13z"/>
<path d="M3060 1891 c-18 -5 -21 -9 -12 -15 7 -4 19 -5 27 -2 26 10 45 -5 45
-35 0 -33 15 -39 23 -9 3 13 10 18 21 14 12 -5 16 0 16 18 0 21 -5 24 -32 24
-18 0 -40 3 -48 6 -8 3 -26 3 -40 -1z"/>
<path d="M2242 1830 c-18 -29 -15 -38 4 -12 9 13 14 25 12 27 -2 2 -9 -5 -16
-15z"/>
<path d="M2860 1840 c0 -5 5 -10 10 -10 6 0 10 5 10 10 0 6 -4 10 -10 10 -5 0
-10 -4 -10 -10z"/>
<path d="M3018 1830 c-12 -38 -10 -66 3 -53 6 6 9 26 7 44 -3 32 -3 33 -10 9z"/>
<path d="M3102 1810 c0 -19 2 -27 5 -17 2 9 2 25 0 35 -3 9 -5 1 -5 -18z"/>
<path d="M3237 1806 c-3 -22 -3 -44 0 -49 11 -18 22 30 14 60 -7 28 -8 28 -14
-11z"/>
<path d="M2980 1741 c0 -12 29 -81 34 -81 2 0 0 16 -4 35 -5 20 -4 33 1 29 5
-3 9 1 9 8 0 8 -9 14 -20 15 -11 1 -20 -2 -20 -6z"/>
<path d="M2220 1705 c0 -14 5 -25 10 -25 6 0 10 11 10 25 0 14 -4 25 -10 25
-5 0 -10 -11 -10 -25z"/>
<path d="M2941 1704 c0 -11 3 -14 6 -6 3 7 2 16 -1 19 -3 4 -6 -2 -5 -13z"/>
<path d="M3020 1701 c0 -5 5 -13 10 -16 6 -3 10 -2 10 4 0 5 -4 13 -10 16 -5
3 -10 2 -10 -4z"/>
<path d="M2130 1660 c-13 -8 -12 -10 3 -10 9 0 17 5 17 10 0 12 -1 12 -20 0z"/>
<path d="M2470 1626 c0 -9 5 -16 10 -16 6 0 10 4 10 9 0 6 -4 13 -10 16 -5 3
-10 -1 -10 -9z"/>
<path d="M2094 1615 c-4 -8 -12 -15 -20 -15 -7 0 -21 -11 -30 -25 -9 -14 -31
-28 -53 -34 -20 -4 -88 -20 -151 -35 -63 -15 -121 -30 -129 -32 -9 -3 20 -25
68 -54 46 -26 95 -59 110 -72 42 -39 92 -73 146 -101 28 -14 82 -49 120 -77
69 -50 352 -197 361 -187 3 3 -52 33 -122 66 -70 34 -173 93 -228 130 -56 37
-111 71 -124 75 -25 8 -72 65 -72 88 0 15 -33 32 -55 29 -5 -1 -2 5 8 12 9 8
17 22 17 31 0 9 6 16 14 16 7 0 16 9 19 20 3 11 11 20 17 20 7 0 10 -7 7 -15
-4 -8 -1 -17 4 -21 7 -4 10 5 9 22 -1 16 -2 37 -1 46 1 21 41 35 51 18 6 -9
10 -6 15 9 4 13 4 25 2 28 -3 3 3 14 14 26 10 11 19 27 19 34 0 18 -9 16 -16
-2z m-188 -193 c-8 -9 -18 -13 -22 -10 -8 9 19 37 29 31 5 -3 2 -12 -7 -21z
m39 -73 c11 -17 -1 -21 -15 -4 -8 9 -8 15 -2 15 6 0 14 -5 17 -11z"/>
<path d="M4084 1394 c24 -61 13 -253 -20 -355 -15 -48 -66 -109 -91 -109 -7 0
-16 -7 -19 -15 -11 -27 -33 -16 -36 18 l-4 32 -8 -40 c-10 -45 -51 -105 -73
-105 -7 0 -16 -7 -19 -15 -6 -15 -65 -31 -99 -26 -11 2 -28 10 -38 19 -17 15
-21 15 -50 0 -68 -34 -142 -44 -219 -30 -27 5 -48 6 -48 2 0 -11 204 -33 247
-26 21 3 70 8 108 11 68 5 200 37 240 58 11 5 48 32 82 60 83 66 103 113 103
237 0 50 -4 110 -9 133 -5 23 -15 68 -21 99 -6 32 -16 61 -22 64 -8 5 -9 1 -4
-12z m-414 -610 c0 -8 -5 -12 -10 -9 -6 4 -8 11 -5 16 9 14 15 11 15 -7z"/>
<path d="M4112 1405 c3 -5 21 -37 41 -70 54 -91 70 -160 65 -279 -4 -78 -11
-116 -31 -166 -14 -36 -29 -78 -33 -95 -4 -16 -12 -37 -18 -45 -10 -13 -9 -13
7 -1 9 7 17 20 17 28 0 8 8 33 18 56 43 99 51 126 57 192 11 133 -41 313 -107
371 -12 11 -19 15 -16 9z"/>
<path d="M1961 1384 c0 -11 3 -14 6 -6 3 7 2 16 -1 19 -3 4 -6 -2 -5 -13z"/>
<path d="M1564 1334 c-18 -15 -18 -15 0 -10 13 5 33 -9 73 -49 30 -30 60 -55
66 -55 7 0 -5 14 -25 30 -20 17 -46 46 -58 65 -25 40 -29 41 -56 19z"/>
<path d="M1484 1295 c-10 -8 -14 -15 -8 -15 6 0 17 7 24 15 16 19 9 19 -16 0z"/>
<path d="M1542 1299 c2 -7 10 -15 17 -17 8 -3 12 1 9 9 -2 7 -10 15 -17 17 -8
3 -12 -1 -9 -9z"/>
<path d="M1445 1270 c-3 -5 -1 -10 4 -10 6 0 11 5 11 10 0 6 -2 10 -4 10 -3 0
-8 -4 -11 -10z"/>
<path d="M1405 1250 c-3 -6 1 -7 9 -4 18 7 21 14 7 14 -6 0 -13 -4 -16 -10z"/>
<path d="M4360 1255 c0 -5 52 -28 91 -40 13 -4 22 -5 19 -2 -8 8 -110 47 -110
42z"/>
<path d="M1644 1215 c11 -8 27 -15 35 -15 9 0 3 7 -13 15 -36 19 -47 19 -22 0z"/>
<path d="M1736 1195 c4 -8 11 -15 16 -15 6 0 5 6 -2 15 -7 8 -14 15 -16 15 -2
0 -1 -7 2 -15z"/>
<path d="M1710 1166 c0 -2 7 -7 16 -10 8 -3 12 -2 9 4 -6 10 -25 14 -25 6z"/>
<path d="M4640 1146 c0 -2 7 -7 16 -10 8 -3 12 -2 9 4 -6 10 -25 14 -25 6z"/>
<path d="M1430 1110 c30 -22 170 -90 170 -83 0 5 -28 21 -62 37 -35 16 -65 33
-68 36 -3 4 -16 10 -30 14 -20 6 -22 5 -10 -4z"/>
<path d="M4790 1100 c8 -5 20 -10 25 -10 6 0 3 5 -5 10 -8 5 -19 10 -25 10 -5
0 -3 -5 5 -10z"/>
<path d="M1235 1050 c-3 -5 1 -10 10 -10 9 0 13 5 10 10 -3 6 -8 10 -10 10 -2
0 -7 -4 -10 -10z"/>
<path d="M1152 963 c16 -18 31 -97 20 -107 -3 -3 -12 0 -20 7 -13 10 -15 9 -9
-5 3 -9 1 -19 -6 -22 -7 -2 -5 -5 5 -5 10 -1 30 -28 52 -75 20 -41 36 -77 36
-81 0 -3 -20 8 -45 25 -61 42 -57 25 9 -33 57 -51 100 -126 109 -189 6 -37 6
-38 -18 -22 -13 8 -26 22 -29 30 -3 8 -12 14 -20 14 -8 0 -18 9 -21 20 -4 11
-10 18 -15 15 -5 -3 -17 3 -27 13 -10 10 -26 22 -35 25 -10 4 -18 13 -18 22 0
8 -9 15 -20 15 -11 0 -20 5 -20 10 0 6 -5 10 -11 10 -6 0 -9 -7 -5 -15 3 -10
-1 -15 -12 -16 -10 0 -12 -3 -4 -6 6 -2 12 -11 12 -19 0 -8 9 -14 20 -14 11 0
20 -6 20 -13 0 -7 29 -44 65 -82 36 -39 80 -89 98 -113 18 -24 61 -78 95 -120
35 -42 81 -111 103 -154 l39 -78 127 0 c122 0 126 1 110 18 -10 10 -17 24 -17
32 0 7 -8 18 -17 25 -12 9 -17 24 -15 49 3 26 0 36 -11 36 -16 0 -40 47 -32
61 4 5 -1 9 -11 9 -12 0 -15 6 -12 25 4 17 1 25 -9 25 -10 0 -11 5 -3 19 6 12
6 22 1 26 -5 3 -12 -3 -14 -12 -4 -16 -5 -16 -6 1 -1 15 -7 17 -36 14 -19 -2
-35 -1 -35 3 0 4 -9 10 -20 14 -11 3 -19 12 -17 18 1 7 -6 11 -15 9 -10 -2
-18 2 -18 8 0 5 14 10 30 10 17 0 30 -5 30 -12 0 -7 7 -2 16 11 14 19 14 27 4
47 -7 13 -17 21 -22 18 -5 -3 -12 3 -15 15 -3 12 -12 21 -20 21 -9 0 -13 6
-10 14 3 8 -2 16 -14 19 -12 3 -19 13 -18 29 1 12 -8 41 -19 63 -11 21 -17 45
-14 53 4 11 0 13 -16 8 -22 -7 -39 8 -21 19 7 5 5 12 -6 24 -36 37 -58 68 -67
94 -8 21 -15 26 -29 22 -24 -8 -37 20 -21 46 16 25 15 29 -7 29 -11 0 -28 15
-41 35 -12 19 -29 35 -37 35 -14 0 -15 -2 -1 -17z m194 -580 c-3 -4 -13 2 -21
13 -22 29 -18 41 6 15 12 -12 18 -25 15 -28z"/>
<path d="M1428 913 c7 -3 16 -2 19 1 4 3 -2 6 -13 5 -11 0 -14 -3 -6 -6z"/>
<path d="M954 883 c3 -22 56 -44 96 -41 l35 4 -30 8 c-16 4 -46 16 -66 26 -30
14 -37 15 -35 3z"/>
<path d="M925 880 c-3 -5 -1 -10 4 -10 6 0 11 5 11 10 0 6 -2 10 -4 10 -3 0
-8 -4 -11 -10z"/>
<path d="M845 806 c-40 -41 -48 -61 -10 -23 21 21 36 39 34 41 -2 2 -13 -6
-24 -18z"/>
<path d="M5454 791 c7 -11 46 -35 46 -28 0 3 -12 12 -26 22 -15 9 -23 12 -20
6z"/>
<path d="M3318 768 c5 -5 16 -8 23 -6 8 3 3 7 -10 11 -17 4 -21 3 -13 -5z"/>
<path d="M720 700 c-23 -18 -24 -19 -3 -14 12 3 24 12 27 20 7 18 6 18 -24 -6z"/>
<path d="M780 700 c-13 -8 -12 -10 3 -10 9 0 17 5 17 10 0 12 -1 12 -20 0z"/>
<path d="M740 641 c0 -5 9 -7 20 -4 11 3 20 7 20 9 0 2 -9 4 -20 4 -11 0 -20
-4 -20 -9z"/>
<path d="M526 569 l-36 -43 -120 -6 c-80 -4 -124 -10 -132 -19 -13 -14 -13
-14 52 5 11 3 20 1 20 -4 0 -5 13 -7 29 -4 26 3 28 1 26 -22 -2 -14 1 -24 6
-20 5 3 16 -2 25 -10 9 -9 20 -13 25 -10 6 3 16 -1 22 -9 7 -8 28 -23 47 -33
19 -11 41 -25 48 -32 8 -7 18 -9 24 -6 6 4 8 2 4 -4 -7 -12 51 -45 65 -36 5 3
9 -2 9 -10 0 -9 3 -15 8 -15 22 4 32 -3 33 -23 0 -13 3 -17 6 -10 2 6 11 12
20 12 10 0 12 -6 8 -21 -5 -13 -3 -19 3 -15 5 3 15 -1 22 -9 7 -8 16 -12 22
-9 5 3 23 -9 41 -26 18 -18 43 -40 57 -49 24 -15 36 -25 89 -70 13 -11 32 -23
42 -26 10 -3 21 -15 24 -26 5 -16 16 -19 60 -19 44 0 53 3 49 15 -4 8 -15 15
-26 15 -15 0 -18 5 -13 20 5 15 2 20 -11 20 -13 0 -15 3 -7 11 13 13 9 19 -43
75 -18 19 -39 34 -48 34 -9 0 -16 7 -16 16 0 8 -5 12 -10 9 -6 -3 -13 2 -17
12 -6 17 -27 36 -65 58 -88 52 -113 65 -128 65 -10 0 -28 9 -41 21 -22 18 -22
20 -4 15 11 -2 38 -7 60 -11 22 -4 71 -21 110 -39 38 -18 83 -36 99 -40 17 -4
41 -15 55 -25 14 -10 33 -18 41 -18 16 0 132 -54 153 -71 18 -15 97 -32 97
-21 0 5 -10 11 -22 14 -13 4 -48 21 -78 40 -30 18 -83 48 -117 66 -35 17 -63
36 -63 40 0 5 -5 9 -11 9 -6 0 -17 7 -25 15 -9 8 -24 15 -34 15 -10 0 -21 7
-24 16 -4 10 -12 14 -22 10 -11 -4 -18 1 -21 14 -3 13 -20 24 -47 32 -22 6
-49 17 -60 24 -17 12 -15 13 17 19 20 4 41 4 47 0 13 -8 120 15 120 27 0 11
-48 10 -55 -2 -10 -15 -62 -12 -98 7 -18 9 -52 18 -77 21 -25 2 -54 5 -65 6
-11 1 -19 7 -17 14 2 13 -11 16 -22 5 -4 -4 -27 -8 -52 -9 -37 -1 -42 1 -33
12 6 8 8 14 4 14 -4 0 -2 7 5 15 7 9 10 18 8 21 -3 3 -22 -14 -42 -37z m260
-139 c15 -6 25 -13 22 -15 -3 -3 -20 1 -39 9 -38 17 -25 21 17 6z"/>
<path d="M610 570 c0 -5 5 -10 10 -10 6 0 10 5 10 10 0 6 -4 10 -10 10 -5 0
-10 -4 -10 -10z"/>
<path d="M1281 504 c0 -11 3 -14 6 -6 3 7 2 16 -1 19 -3 4 -6 -2 -5 -13z"/>
<path d="M325 480 c-3 -5 1 -10 10 -10 9 0 13 5 10 10 -3 6 -8 10 -10 10 -2 0
-7 -4 -10 -10z"/>
<path d="M92 350 c0 -14 2 -19 5 -12 2 6 2 18 0 25 -3 6 -5 1 -5 -13z"/>
<path d="M1735 350 c3 -5 8 -10 11 -10 2 0 4 5 4 10 0 6 -5 10 -11 10 -5 0 -7
-4 -4 -10z"/>
<path d="M111 298 c-1 -10 -6 -18 -12 -18 -5 0 -7 -4 -4 -10 3 -6 -1 -7 -9 -4
-9 3 -16 1 -16 -5 0 -6 -7 -11 -15 -11 -22 0 -55 -32 -55 -53 0 -10 5 -15 10
-12 6 3 10 1 10 -4 0 -6 -5 -11 -10 -11 -21 0 10 -37 85 -103 l76 -67 75 0
c59 0 74 3 74 15 0 8 -4 15 -10 15 -11 0 -54 64 -65 98 -10 32 -40 61 -82 78
-33 14 -34 16 -19 33 22 24 20 51 -3 51 -11 0 -22 6 -24 13 -3 7 -6 5 -6 -5z"/>
<path d="M4331 234 c0 -11 3 -14 6 -6 3 7 2 16 -1 19 -3 4 -6 -2 -5 -13z"/>
<path d="M825 119 c4 -6 11 -23 15 -37 8 -24 8 -23 7 10 -1 24 -7 38 -15 38
-7 0 -10 -5 -7 -11z"/>
<path d="M1850 120 c0 -5 9 -10 21 -10 11 0 17 5 14 10 -3 6 -13 10 -21 10 -8
0 -14 -4 -14 -10z"/>
<path d="M1880 62 c0 -15 9 -35 20 -45 23 -20 80 -23 80 -5 0 16 -49 58 -67
58 -7 0 -13 5 -13 10 0 6 -4 10 -10 10 -5 0 -10 -12 -10 -28z"/>
</g>
</svg>
